<?xml version="1.0" encoding="UTF-8" standalone="no"?>
<svg width="53px" height="57px" viewBox="0 0 53 57" version="1.1" xmlns="http://www.w3.org/2000/svg" xmlns:xlink="http://www.w3.org/1999/xlink">
    <!-- Generator: Sketch 40.1 (33804) - http://www.bohemiancoding.com/sketch -->
    <title>100 - Cupcake (gastronomy, food, cooking, retro)</title>
    <desc>Created with Sketch.</desc>
    <defs></defs>
    <g id="Page-1" stroke="none" stroke-width="1" fill="none" fill-rule="evenodd">
        <g id="Icons" transform="translate(-121.000000, -1918.000000)">
            <g id="100---Cupcake-(gastronomy,-food,-cooking,-retro)" transform="translate(122.000000, 1919.000000)">
                <path d="M5.9455,20.4402 C2.4085,16.9032 1.9995,11.5872 5.0315,8.5552 L5.9455,7.6412 C8.9775,4.6092 14.2935,5.0182 17.8305,8.5552 C21.1125,11.8372 21.1125,17.1582 17.8305,20.4402 C14.5485,23.7222 9.2275,23.7222 5.9455,20.4402" id="Fill-1251" fill="#F85B57"></path>
                <path d="M8,9.6625 C9.263,10.9255 11.308,10.9255 12.571,9.6625" id="Stroke-1252" stroke="#F98282" stroke-width="2" stroke-linecap="round"></path>
                <path d="M4.1408,34.4065 L8.6408,45.4915 C11.6098,50.9525 13.9998,52.3845 19.8038,54.6095 C23.5968,56.0645 30.7818,56.0645 34.5458,54.6095 C40.2868,52.3905 42.7158,50.9945 45.6568,45.5865 L50.2088,34.4065 C47.6618,31.8855 43.5408,34.6975 40.9948,37.2185 C38.4618,34.6975 34.3618,36.4925 31.8278,39.0135 C29.2948,36.4925 25.1948,36.4925 22.6608,39.0135 C20.1018,36.4925 15.9598,34.6975 13.4008,37.2185 C10.8418,34.6975 6.6998,31.8855 4.1408,34.4065" id="Fill-1253" fill="#A46F3E"></path>
                <path d="M14.2757,42.61 L17.0397,48.514" id="Stroke-1254" stroke="#C18B5F" stroke-width="2" stroke-linecap="round" stroke-linejoin="round"></path>
                <path d="M40.0735,42.61 L37.3095,48.514" id="Stroke-1255" stroke="#C18B5F" stroke-width="2" stroke-linecap="round" stroke-linejoin="round"></path>
                <path d="M31.7814,44.7059 L30.8604,50.6099" id="Stroke-1256" stroke="#C18B5F" stroke-width="2" stroke-linecap="round" stroke-linejoin="round"></path>
                <path d="M22.5678,44.7059 L23.4888,50.6099" id="Stroke-1257" stroke="#C18B5F" stroke-width="2" stroke-linecap="round" stroke-linejoin="round"></path>
                <path d="M47.1135,25.6819 C47.2595,25.1849 47.3375,24.6759 47.3375,24.1579 C47.3375,21.3729 45.1425,18.8489 41.5805,16.9959 C41.5805,16.9959 41.6745,0.9849 28.6185,2.2789 C28.6185,2.2789 32.8275,9.0959 26.9295,9.1579 C24.0545,9.1879 21.3785,9.5699 19.1035,10.2059 C21.0245,13.4319 20.6065,17.6639 17.8305,20.4399 C14.9495,23.3209 10.4995,23.6719 7.2345,21.4959 C6.7825,22.3459 6.5215,23.2349 6.5215,24.1579 C6.5215,24.6759 6.5995,25.1849 6.7455,25.6819 C4.3775,27.4339 2.9995,29.5129 2.9995,31.7439 C2.9995,33.2719 3.6455,34.7269 4.8105,36.0559 L4.1405,34.4059 C6.6995,31.8859 10.8415,34.6979 13.4005,37.2179 C15.9595,34.6979 20.1015,36.4929 22.6605,39.0129 C25.1945,36.4929 29.2945,36.4929 31.8275,39.0129 C34.3615,36.4929 38.4615,34.6979 40.9945,37.2179 C43.5355,34.7029 47.6435,31.8999 50.1915,34.3919 C50.6235,33.5429 50.8595,32.6569 50.8595,31.7439 C50.8595,29.5129 49.4815,27.4339 47.1135,25.6819" id="Fill-1258" fill="#FFF6BB"></path>
                <path d="M10,7.61 C10,7.61 9.375,0.173 0,1.61" id="Stroke-1259" stroke="#6A3311" stroke-width="2" stroke-linecap="round"></path>
                <path d="M38.8014,18.012 C35.5594,18.991 31.5354,19.57 27.1774,19.57" id="Stroke-1260" stroke="#F9DA49" stroke-width="2" stroke-linecap="round" stroke-linejoin="round"></path>
                <path d="M12.344,28.5276 C11.296,28.1466 10.272,27.6996 9.284,27.1826" id="Stroke-1261" stroke="#F9DA49" stroke-width="2" stroke-linecap="round" stroke-linejoin="round"></path>
                <path d="M33.4412,30.4523 C29.3082,30.9893 25.1062,31.0203 20.9682,30.5133" id="Stroke-1262" stroke="#F9DA49" stroke-width="2" stroke-linecap="round" stroke-linejoin="round"></path>
                <path d="M44.6855,27.1775 C43.0655,28.0335 41.1465,28.7695 39.0015,29.3545" id="Stroke-1263" stroke="#F9DA49" stroke-width="2" stroke-linecap="round" stroke-linejoin="round"></path>
                <path d="M5.9455,19.4402 C2.4085,15.9032 1.9995,10.5872 5.0315,7.5552 L5.9455,6.6412 C8.9775,3.6092 14.2935,4.0182 17.8305,7.5552 C21.1125,10.8372 21.1125,16.1582 17.8305,19.4402 C14.5485,22.7222 9.2275,22.7222 5.9455,19.4402 L5.9455,19.4402 Z" id="Stroke-3500" stroke="#231F1F" stroke-width="2" stroke-linecap="round"></path>
                <path d="M4.1408,33.4065 L8.6408,44.4915 C11.6098,49.9525 13.9998,51.3845 19.8038,53.6095 C23.5968,55.0645 30.7818,55.0645 34.5458,53.6095 C40.2868,51.3905 42.7158,49.9945 45.6568,44.5865 L50.2088,33.4065 C47.6618,30.8855 43.5408,33.6975 40.9948,36.2185 C38.4618,33.6975 34.3618,35.4925 31.8278,38.0135 C29.2948,35.4925 25.1948,35.4925 22.6608,38.0135 C20.1018,35.4925 15.9598,33.6975 13.4008,36.2185 C10.8418,33.6975 6.6998,30.8855 4.1408,33.4065 L4.1408,33.4065 Z" id="Stroke-3501" stroke="#231F1F" stroke-width="2"></path>
                <path d="M47.1135,24.6819 C47.2595,24.1849 47.3375,23.6759 47.3375,23.1579 C47.3375,20.3729 45.1425,17.8489 41.5805,15.9959 C41.5805,15.9959 41.6745,-0.0151 28.6185,1.2789 C28.6185,1.2789 32.8275,8.0959 26.9295,8.1579 C24.0545,8.1879 21.3785,8.5699 19.1035,9.2059 C21.0245,12.4319 20.6065,16.6639 17.8305,19.4399 C14.9495,22.3209 10.4995,22.6719 7.2345,20.4959 C6.7825,21.3459 6.5215,22.2349 6.5215,23.1579 C6.5215,23.6759 6.5995,24.1849 6.7455,24.6819 C4.3775,26.4339 2.9995,28.5129 2.9995,30.7439 C2.9995,32.2719 3.6455,33.7269 4.8105,35.0559 L4.1405,33.4059 C6.6995,30.8859 10.8415,33.6979 13.4005,36.2179 C15.9595,33.6979 20.1015,35.4929 22.6605,38.0129 C25.1945,35.4929 29.2945,35.4929 31.8275,38.0129 C34.3615,35.4929 38.4615,33.6979 40.9945,36.2179 C43.5355,33.7029 47.6435,30.8999 50.1915,33.3919 C50.6235,32.5429 50.8595,31.6569 50.8595,30.7439 C50.8595,28.5129 49.4815,26.4339 47.1135,24.6819 L47.1135,24.6819 Z" id="Stroke-3502" stroke="#000000" stroke-width="2" stroke-linecap="round" stroke-linejoin="round"></path>
                <path d="M10,6.61 C10,6.61 9.375,-0.827 0,0.61" id="Stroke-3503" stroke="#231F1F" stroke-width="2" stroke-linecap="round"></path>
            </g>
        </g>
    </g>
</svg>